HIERARCHY
ROOT hip
{
	OFFSET 0.000000 0.000000 0.000000 
	CHANNELS 6 Xposition Yposition Zposition Xrotation Zrotation Yrotation
	JOINT abdomen
	{
		OFFSET 0.000000 3.402643 0.000000 
		CHANNELS 3 Xrotation Zrotation Yrotation
		JOINT chest
		{
			OFFSET 0.000000 8.438565 -0.680529 
			CHANNELS 3 Xrotation Zrotation Yrotation
			JOINT neck
			{
				OFFSET 0.000000 10.207942 -0.272212 
				CHANNELS 3 Xrotation Zrotation Yrotation
				JOINT head
				{
					OFFSET 0.000000 3.130431 0.000000 
					CHANNELS 3 Xrotation Zrotation Yrotation
					End Site
					{
						OFFSET 0.000000 3.130435 0.000000 
					}
				}
			}
			JOINT lCollar
			{
				OFFSET 3.470700 6.669187 -0.816635 
				CHANNELS 3 Yrotation Zrotation Xrotation
				JOINT lShldr
				{
					OFFSET 3.198488 0.000000 0.000000 
					CHANNELS 3 Zrotation Yrotation Xrotation
					JOINT lForeArm
					{
						OFFSET 10.139888 0.000000 0.000000 
						CHANNELS 3 Yrotation Zrotation Xrotation
						JOINT lHand
						{
							OFFSET 8.370511 0.000000 0.000000 
							CHANNELS 3 Zrotation Yrotation Xrotation
							End Site
							{
								OFFSET 4.083176 0.000000 0.000000 
							}
						}
					}
				}
			}
			JOINT rCollar
			{
				OFFSET -3.470700 6.669187 -0.816635 
				CHANNELS 3 Yrotation Zrotation Xrotation
				JOINT rShldr
				{
					OFFSET -3.198488 0.000000 0.000000 
					CHANNELS 3 Zrotation Yrotation Xrotation
					JOINT rForeArm
					{
						OFFSET -10.139888 0.000000 0.000000 
						CHANNELS 3 Yrotation Zrotation Xrotation
						JOINT rHand
						{
							OFFSET -8.370511 0.000000 0.000000 
							CHANNELS 3 Zrotation Yrotation Xrotation
							End Site
							{
								OFFSET -4.083176 0.000000 0.000000 
							}
						}
					}
				}
			}
		}
	}
	JOINT lThigh
	{
		OFFSET 5.308129 -1.633274 1.361059 
		CHANNELS 3 Xrotation Zrotation Yrotation
		JOINT lShin
		{
			OFFSET -2.041588 -20.007561 0.000000 
			CHANNELS 3 Xrotation Zrotation Yrotation
			JOINT lFoot
			{
				OFFSET 0.000000 -19.190928 -1.224953 
				CHANNELS 3 Xrotation Yrotation Zrotation
				End Site
				{
					OFFSET 0.000000 -2.449906 4.627600 
				}
			}
		}
	}
	JOINT rThigh
	{
		OFFSET -5.308129 -1.633274 1.361059 
		CHANNELS 3 Xrotation Zrotation Yrotation
		JOINT rShin
		{
			OFFSET 2.041588 -20.007561 0.000000 
			CHANNELS 3 Xrotation Zrotation Yrotation
			JOINT rFoot
			{
				OFFSET 0.000000 -19.190928 -1.224953 
				CHANNELS 3 Xrotation Yrotation Zrotation
				End Site
				{
					OFFSET 0.000000 -2.449906 4.627600 
				}
			}
		}
	}
}
MOTION
Frames: 6
Frame Time: 0.016667
20.595211 52.227589 168.926666 30.752159 -3.310866 7.560970 0.000000 0.000000 0.000000 30.351311 8.554236 -0.592493 -17.962944 -2.389708 -7.819508 -16.941179 -2.460736 -0.733424 27.235758 28.029097 24.986361 -3.007409 -119.459610 20.047422 -8.178450 1.776039 13.771537 -23.311460 -9.774482 1.653426 -18.921059 -26.776804 24.992527 38.222149 98.581856 36.340023 16.952105 -5.365348 27.067986 -18.199522 -1.349367 -1.663730 -19.591789 9.809544 6.247129 -3.686076 -2.074572 -7.046935 43.045925 0.541527 -23.579344 -29.156687 -17.298153 -30.908197 17.312563 1.252662 -7.806139 42.611824 6.621212 -0.753949 
20.668232 52.583744 169.588303 30.136410 -3.222113 7.776023 0.000000 0.000000 0.000000 30.082056 8.777986 -0.997129 -17.691675 -2.547612 -7.292675 -16.616224 -2.568132 -0.762704 29.201504 28.449934 24.996298 -1.706245 -119.454475 20.438580 -9.580302 2.773943 14.886083 -20.615583 -9.154616 1.213287 -20.261133 -27.733236 25.000000 44.531960 98.175629 36.746620 20.734020 -2.422724 23.105207 -14.325854 -0.226616 -1.716081 -18.891508 9.508375 7.762245 -3.627299 -2.035563 -5.380690 41.910583 0.466844 -22.300184 -28.551161 -17.063419 -31.611553 17.319681 1.288088 -7.303511 39.907005 6.595133 -1.219309 
20.741161 52.938774 170.249634 29.523212 -3.123808 7.980247 0.000000 0.000000 0.000000 29.798029 9.010972 -1.412895 -17.412374 -2.715364 -6.765456 -16.300787 -2.685291 -0.791977 31.158060 28.856358 24.989475 -0.416418 -119.441483 20.824097 -11.026589 3.750512 16.034128 -17.931671 -8.516182 0.805834 -21.622776 -28.688499 24.997868 51.330730 97.797333 37.659142 24.705051 0.236140 18.956173 -10.458340 0.889451 -1.693018 -18.205576 9.184215 9.264884 -3.569164 -1.996992 -3.733985 40.760872 0.371830 -21.016411 -27.946329 -16.830166 -32.293373 17.334869 1.358485 -6.824922 37.183418 6.582864 -1.713803 
20.793573 53.044258 170.842163 29.592279 -3.122526 8.146544 0.000000 0.000000 0.000000 29.169252 9.602618 -2.168967 -17.134932 -3.255218 -5.722496 -16.219748 -2.792682 -0.821717 31.446440 28.435041 24.989056 3.269612 -117.155930 15.106432 -13.856469 5.052025 18.517431 -14.582669 -7.714947 0.330347 -22.258694 -29.348944 25.000000 67.204529 97.990799 54.030685 29.373600 1.634955 12.997765 -6.975048 1.889726 -1.607544 -18.398417 8.720852 10.826156 -3.782122 -1.987136 -3.419720 36.488918 0.336416 -18.321520 -28.025911 -16.452330 -31.823193 16.988314 1.434804 -5.643502 31.843445 6.370297 -0.835326 
20.845972 53.148678 171.434494 29.673059 -3.111633 8.303090 0.000000 0.000000 0.000000 28.532600 10.191955 -2.936557 -16.856117 -3.805622 -4.688138 -16.128830 -2.900072 -0.850992 31.734367 27.996469 24.985332 7.762811 -115.063210 8.588302 -16.753242 6.230164 21.087761 -11.248168 -6.878693 -0.089636 -22.911137 -30.000000 24.994019 81.297722 98.762711 68.633842 34.157745 2.539377 6.938651 -3.507101 2.876120 -1.456114 -18.603149 8.261758 12.385200 -3.991118 -1.979853 -3.115535 32.226181 0.116401 -15.652282 -28.101807 -16.057528 -31.344742 16.630613 1.533199 -4.479797 26.523567 6.078609 0.005356 
20.896084 53.018948 171.983780 30.132763 -3.121606 8.264087 0.000000 0.000000 0.000000 28.200781 10.644650 -3.497331 -16.981712 -4.267928 -3.810081 -16.156246 -2.958644 -0.870502 30.965700 27.092541 24.999350 14.418694 -111.642555 -3.725263 -21.366861 6.637383 25.179535 -8.111312 -6.062713 -0.452798 -23.170240 -30.000000 24.999895 -81.805756 80.077034 -92.273018 39.281559 2.164681 0.151067 -4.138624 2.693567 -1.485355 -20.141130 8.121164 13.261401 -2.912390 -2.001468 -3.339766 26.050123 0.222282 -14.088271 -27.555212 -15.101637 -30.385357 13.471533 1.610307 -3.634459 21.229254 5.813460 1.481007 
